# xmcd
#
# Track frame offsets:
#       300
#       24527
#       61579
#       93785
#       128253
#       157828
#       190050
#       217739
#       257375
#       290751
#       318064
#
# Disc length: 4667 seconds
#
# Revision: 1
# Processed by: cddbd v1.5.2PL0 Copyright (c) Steve Scherf et al.
# Submitted via: WaveLab 4.01
#
DISCID=7c12370b
DTITLE=Promo Only CD Pool - UK Club Beats December 2006 CD B
DYEAR=2006
DGENRE=Electronic
TTITLE0=Juliet Sikora - Together Now (Original Mix)
TTITLE1=Mike Polo - Free (Ben Macklin Remix)
TTITLE2=Freemasons ft. Sideah Garrett - Rain Down Love (Phunkk Mobb Remix)
TTITLE3=Allister Whitehead - Blu Car (Original Mix)
TTITLE4=Inner City - Pennies From Heaven (Mark Wilkinson Kidology Mix)
TTITLE5=Anton Nuemark - Need You Tonight (Alex Camel Remix)
TTITLE6=Marradonna - Out Of My Head 2007 (DJ Bomba and El Senor Mix)
TTITLE7=The Holy Rollers - Love Me More (Alternative Mix)
TTITLE8=Substation 3 vs. Hazel O'Connor - Will You (Original Club Mix)
TTITLE9=Feela - Dirty Boy, Dirty Mouth (Original Mix)
TTITLE10=Supatoy - Megajoy Promises - DJ Rage Remix)
EXTD=
EXTT0=
EXTT1=
EXTT2=
EXTT3=
EXTT4=
EXTT5=
EXTT6=
EXTT7=
EXTT8=
EXTT9=
EXTT10=
PLAYORDER=
